<?xml version="1.0" encoding="UTF-8"?>
<svg id="Layer_1" data-name="Layer 1" xmlns="http://www.w3.org/2000/svg" viewBox="0 0 510.38 511">
  <defs>
    <style>
      .cls-1 {
        fill: #8c8c8c;
      }

      .cls-2 {
        fill: #fff;
        stroke-width: 10px;
      }

      .cls-2, .cls-3 {
        stroke: #fff;
        stroke-linecap: round;
        stroke-linejoin: round;
      }

      .cls-4 {
        fill: #474748;
      }

      .cls-5 {
        fill: #5c3a97;
      }

      .cls-6 {
        fill: #1b1b1c;
      }

      .cls-3 {
        fill: none;
        stroke-width: 18px;
      }
    </style>
  </defs>
  <rect class="cls-5" y="239.63" width="510.38" height="271.37" rx="86.82" ry="86.82"/>
  <g>
    <rect class="cls-6" x="4" y="4" width="502.38" height="463.14" rx="81.39" ry="81.39"/>
    <path class="cls-4" d="m424.99,8c42.67,0,77.39,34.72,77.39,77.39v300.36c0,42.67-34.72,77.39-77.39,77.39H85.39c-42.67,0-77.39-34.72-77.39-77.39V85.39C8,42.72,42.72,8,85.39,8h339.6m0-8H85.39C38.23,0,0,38.23,0,85.39v300.36C0,432.91,38.23,471.14,85.39,471.14h339.6c47.16,0,85.39-38.23,85.39-85.39V85.39c0-47.16-38.23-85.39-85.39-85.39h0Z"/>
  </g>
  <g>
    <path class="cls-2" d="m239.05,43.45v171.8h-39.52v-70.86h-53.62v70.86h-39.52V43.45h39.52v66.96h53.62V43.45h39.52Z"/>
    <path class="cls-2" d="m405.61,43.45v33.98h-42.54v137.82h-40.78V77.43h-42.79v-33.98h126.12Z"/>
  </g>
  <rect class="cls-1" x="139.29" y="257.64" width="303.51" height="35.19" rx="17.6" ry="17.6"/>
  <rect class="cls-1" x="139.29" y="326.11" width="303.51" height="35.19" rx="17.6" ry="17.6"/>
  <rect class="cls-1" x="188.95" y="394.59" width="252.43" height="35.19" rx="17.6" ry="17.6"/>
  <path class="cls-3" d="m114.79,333.67l-20.08,20.08-20.08-20.08"/>
  <path class="cls-3" d="m84.66,257.64l20.08,20.08-20.08,20.08"/>
  <path class="cls-3" d="m165.59,402.15l-20.08,20.08-20.08-20.08"/>
</svg>